<?xml version="1.0" encoding="utf-8"?>
<!-- Svg Vector Icons : http://www.sfont.cn -->
<!DOCTYPE svg PUBLIC "-//W3C//DTD SVG 1.1//EN" "http://www.w3.org/Graphics/SVG/1.1/DTD/svg11.dtd">
<svg version="1.1" xmlns="http://www.w3.org/2000/svg" xmlns:xlink="http://www.w3.org/1999/xlink" x="0px" y="0px" viewBox="0 0 1000 1000" enable-background="new 0 0 1000 1000" xml:space="preserve">
<metadata> Svg Vector Icons : http://www.sfont.cn </metadata>
<g><path d="M911.9,12.3L500,130L88.1,12.3c-18.4-5.2-38.3-1.5-53.7,10C19,33.9,10,52,10,71.2v735c0,27.3,18.1,51.4,44.4,58.9l428.7,122.5c5.5,1.5,11.1,2.3,16.8,2.3c5.7,0,11.3-0.8,16.8-2.3l428.8-122.5c26.3-7.5,44.4-31.6,44.4-58.9v-735c0-19.2-9-37.3-24.3-48.9C950.3,10.8,930.4,7.1,911.9,12.3z M132.5,152.5L438.7,240v607.5l-306.2-87.4V152.5z M867.5,760.1l-306.3,87.4V240l306.3-87.5V760.1z"/></g>
</svg>