<?xml version="1.0" ?><svg id="Layer_1" style="enable-background:new 0 0 30 30;" version="1.1" viewBox="0 0 30 30" xml:space="preserve" xmlns="http://www.w3.org/2000/svg" xmlns:xlink="http://www.w3.org/1999/xlink"><g><path d="M25.313,10.19c0.063-1.016-0.274-1.996-0.948-2.758c-0.605-0.685-1.417-1.121-2.312-1.248   c0.637-1.641,0.069-3.539-1.441-4.541c-1.666-1.102-3.888-0.724-5.099,0.82c-1.103-1.372-3.03-1.831-4.653-1.022   c-1.787,0.89-2.569,3.004-1.839,4.826c-1.74,0.269-3.1,1.709-3.211,3.518c-0.063,1.016,0.274,1.996,0.948,2.758   c0.605,0.685,1.417,1.121,2.312,1.248c-0.637,1.641-0.07,3.54,1.441,4.54c0.632,0.419,1.356,0.636,2.097,0.636   c0.221,0,0.443-0.028,0.664-0.067c-0.769,0.588-1.556,1.259-1.781,2.242l-0.232-0.154c0.178-0.973-0.931-2.329-2.299-3.295   c-1.676-1.183-3.837-0.94-3.928-0.931c-0.108,0.013-0.206,0.069-0.271,0.156c-0.065,0.086-0.093,0.195-0.076,0.303   c0.016,0.102,0.407,2.492,2.095,3.684c0.973,0.687,2.069,1.051,2.938,1.051c0.446,0,0.829-0.098,1.108-0.296l0.633,0.42   c0,0,0.001,0,0.001,0c0.181,1.243,1.187,1.837,2.149,2.33c0.003,0.001,0.005,0.003,0.008,0.004c0.057,0.029,0.114,0.059,0.17,0.088   c1.005,0.512,1.873,0.953,1.928,1.989c0.034,0.654-0.244,1.175-0.959,1.799c-0.166,0.146-0.184,0.398-0.038,0.564   c0.079,0.091,0.19,0.138,0.301,0.138c0.093,0,0.187-0.033,0.263-0.099c0.605-0.528,1.292-1.284,1.232-2.444   c-0.068-1.283-0.969-1.919-1.899-2.418l0.154-0.095c0.258,0.146,0.579,0.223,0.953,0.223c0.954,0,2.196-0.429,3.273-1.05   c1.947-1.125,2.702-3.389,2.733-3.484c0.034-0.108,0.022-0.226-0.034-0.324c-0.057-0.098-0.152-0.168-0.264-0.191   c-0.099-0.021-2.435-0.498-4.384,0.626c-0.932,0.538-1.728,1.195-2.241,1.851c-0.504,0.644-0.676,1.239-0.537,1.718l-0.484,0.299   c-0.843-0.442-1.516-0.893-1.564-1.802c-0.056-1.056,0.768-1.681,1.721-2.405c0.659-0.5,1.369-1.049,1.752-1.793   c1.114,1.299,2.984,1.723,4.568,0.934c1.786-0.891,2.569-3.004,1.84-4.826C23.842,13.439,25.202,11.999,25.313,10.19z    M15.436,22.078c0.451-0.576,1.166-1.163,2.011-1.65c0.888-0.513,1.898-0.635,2.657-0.635c0.263,0,0.494,0.015,0.681,0.032   c-0.301,0.663-0.992,1.898-2.19,2.59c-1.195,0.691-2.245,0.957-2.896,0.947l2.228-1.374c0.188-0.116,0.246-0.362,0.131-0.551   c-0.117-0.189-0.365-0.245-0.551-0.131l-2.473,1.524C15.083,22.622,15.215,22.36,15.436,22.078z M7.24,20.25   c-1.017-0.717-1.484-2.031-1.667-2.714c0.606-0.001,1.915,0.098,2.925,0.811c1.043,0.737,1.668,1.53,1.887,2.062l-1.403-0.93   c-0.185-0.124-0.432-0.071-0.555,0.112c-0.122,0.184-0.072,0.432,0.112,0.554l1.488,0.986C9.43,21.226,8.322,21.015,7.24,20.25z    M15.998,3.157c0.917-1.383,2.787-1.764,4.172-0.847c1.312,0.87,1.715,2.597,0.948,3.968l-2.629,1.54   c-0.594-0.013-1.157-0.167-1.645-0.49c-0.362-0.24-0.66-0.57-0.897-0.97l-0.02-3.068l0.01-0.019   C15.956,3.234,15.974,3.194,15.998,3.157z M15.573,12.768c-0.244-0.311-0.529-0.575-0.852-0.789   c-0.473-0.313-1.004-0.514-1.561-0.592c0.146-0.367,0.233-0.746,0.257-1.132c0.035-0.566-0.057-1.126-0.268-1.647   c0.392-0.057,0.763-0.172,1.109-0.345c0.508-0.252,0.947-0.612,1.293-1.055c0.245,0.311,0.529,0.575,0.853,0.789   c0.473,0.313,1.004,0.514,1.561,0.592c-0.146,0.367-0.232,0.746-0.257,1.133c-0.034,0.566,0.058,1.126,0.269,1.647   c-0.392,0.057-0.764,0.172-1.11,0.345C16.358,11.965,15.919,12.325,15.573,12.768z M11.217,2.158   c1.409-0.7,3.107-0.187,3.911,1.164l0.019,3.049c-0.297,0.508-0.723,0.916-1.246,1.177c-0.39,0.194-0.836,0.271-1.29,0.292   L9.946,6.323L9.934,6.305c-0.024-0.036-0.049-0.071-0.069-0.11C9.125,4.709,9.732,2.898,11.217,2.158z M7.358,12.014   c-0.532-0.602-0.798-1.376-0.749-2.179c0.096-1.572,1.427-2.753,2.964-2.804l2.648,1.506c0.292,0.511,0.432,1.085,0.396,1.668   c-0.027,0.434-0.164,0.857-0.391,1.262L9.58,13.019L9.56,13.02c-0.044,0.003-0.086,0.009-0.133,0.004   C8.625,12.975,7.89,12.616,7.358,12.014z M10.953,17.664c-1.313-0.868-1.715-2.595-0.948-3.967l2.631-1.542   c0.591,0,1.155,0.168,1.642,0.491c0.362,0.24,0.66,0.571,0.898,0.97l0.017,2.648c-0.005,0.029-0.014,0.057-0.013,0.087   c0.008,0.149-0.006,0.287-0.031,0.42c-0.008,0.015-0.015,0.031-0.024,0.046c-0.444,0.67-1.123,1.128-1.911,1.287   C12.428,18.265,11.623,18.109,10.953,17.664z M19.905,17.817c-1.407,0.704-3.106,0.188-3.91-1.163l-0.019-3.049   c0.298-0.509,0.723-0.917,1.247-1.177c0.388-0.194,0.823-0.278,1.289-0.292l2.667,1.517l0.011,0.016   c0.024,0.036,0.05,0.071,0.069,0.111C21.998,15.267,21.391,17.078,19.905,17.817z M21.551,12.945l-2.65-1.508   c-0.291-0.511-0.431-1.083-0.396-1.667c0.028-0.434,0.165-0.857,0.391-1.263l2.648-1.551l0.018-0.001   c0.034-0.002,0.068-0.005,0.103-0.005c0.011,0,0.031,0.001,0.031,0.001C22.498,7,23.233,7.359,23.765,7.962   c0.533,0.603,0.799,1.376,0.749,2.179C24.418,11.713,23.141,12.904,21.551,12.945z"/><ellipse cx="14.255" cy="9.186" rx="0.113" ry="0.113" transform="matrix(0.8951 -0.4459 0.4459 0.8951 -2.6006 7.3202)"/><ellipse cx="13.717" cy="8.79" rx="0.112" ry="0.112" transform="matrix(0.8952 -0.4457 0.4457 0.8952 -2.4801 7.0349)"/><ellipse cx="13.78" cy="9.423" rx="0.113" ry="0.113" transform="matrix(0.8951 -0.4459 0.4459 0.8951 -2.7558 7.1334)"/><ellipse cx="14.991" cy="8.59" rx="0.113" ry="0.112" transform="matrix(0.8952 -0.4457 0.4457 0.8952 -2.2571 7.5817)"/><ellipse cx="15.701" cy="9.024" rx="0.113" ry="0.113" transform="matrix(0.8951 -0.4459 0.4459 0.8951 -2.3767 7.9482)"/><ellipse cx="15.063" cy="7.995" rx="0.112" ry="0.112" transform="matrix(0.8952 -0.4457 0.4457 0.8952 -1.9843 7.5513)"/><ellipse cx="15.502" cy="7.65" rx="0.112" ry="0.112" transform="matrix(0.8952 -0.4457 0.4457 0.8952 -1.7849 7.7108)"/><ellipse cx="15.51" cy="9.633" rx="0.112" ry="0.112" transform="matrix(0.8952 -0.4457 0.4457 0.8952 -2.6675 7.9226)"/><ellipse cx="16.44" cy="9.772" rx="0.113" ry="0.112" transform="matrix(0.8951 -0.4459 0.4459 0.8951 -2.6325 8.356)"/><ellipse cx="15.529" cy="10.591" rx="0.112" ry="0.113" transform="matrix(0.8951 -0.4459 0.4459 0.8951 -3.0934 8.0356)"/><ellipse cx="15.483" cy="12.158" rx="0.112" ry="0.113" transform="matrix(0.8951 -0.4459 0.4459 0.8951 -3.7968 8.1798)"/><ellipse cx="15.82" cy="10.081" rx="0.112" ry="0.112" transform="matrix(0.8952 -0.4457 0.4457 0.8952 -2.8348 8.1074)"/><ellipse cx="17.159" cy="9.905" rx="0.112" ry="0.113" transform="matrix(0.8951 -0.4459 0.4459 0.8951 -2.6164 8.6905)"/><ellipse cx="17.588" cy="8.853" rx="0.112" ry="0.112" transform="matrix(0.8952 -0.4457 0.4457 0.8952 -2.1023 8.7667)"/><ellipse cx="15.969" cy="11.058" rx="0.112" ry="0.112" transform="matrix(0.8952 -0.4457 0.4457 0.8952 -3.2547 8.2762)"/><ellipse cx="17.275" cy="11.196" rx="0.112" ry="0.112" transform="matrix(0.8952 -0.4457 0.4457 0.8952 -3.1794 8.8727)"/><ellipse cx="14.717" cy="9.465" rx="0.112" ry="0.112" transform="matrix(0.8952 -0.4457 0.4457 0.8952 -2.6761 7.5512)"/><ellipse cx="13.784" cy="10.055" rx="0.113" ry="0.112" transform="matrix(0.8952 -0.4457 0.4457 0.8952 -3.0369 7.1973)"/><ellipse cx="16.365" cy="8.644" rx="0.113" ry="0.113" transform="matrix(0.8951 -0.4459 0.4459 0.8951 -2.1376 8.2043)"/><ellipse cx="14.378" cy="8.534" rx="0.112" ry="0.113" transform="matrix(0.8952 -0.4457 0.4457 0.8952 -2.2964 7.3029)"/><ellipse cx="14.583" cy="10.35" rx="0.113" ry="0.112" transform="matrix(0.8952 -0.4457 0.4457 0.8952 -3.0843 7.5842)"/><ellipse cx="13.855" cy="11.218" rx="0.113" ry="0.112" transform="matrix(0.8952 -0.4457 0.4457 0.8952 -3.5478 7.3508)"/><ellipse cx="14.933" cy="11.232" rx="0.113" ry="0.112" transform="matrix(0.8952 -0.4457 0.4457 0.8952 -3.4409 7.8327)"/><ellipse cx="13.891" cy="10.564" rx="0.113" ry="0.113" transform="matrix(0.7994 -0.6008 0.6008 0.7994 -3.5602 10.4654)"/><ellipse cx="16.718" cy="9.156" rx="0.113" ry="0.113" transform="matrix(0.7994 -0.6008 0.6008 0.7994 -2.1473 11.8815)"/><ellipse cx="16.469" cy="10.424" rx="0.113" ry="0.113" transform="matrix(0.7994 -0.6008 0.6008 0.7994 -2.9589 11.986)"/><ellipse cx="15.698" cy="8.216" rx="0.113" ry="0.113" transform="matrix(0.7992 -0.6011 0.6011 0.7992 -1.7861 11.0867)"/></g></svg>