<?xml version="1.0" encoding="utf-8"?>
<!-- Svg Vector Icons : http://www.onlinewebfonts.com/icon -->
<!DOCTYPE svg PUBLIC "-//W3C//DTD SVG 1.1//EN" "http://www.w3.org/Graphics/SVG/1.1/DTD/svg11.dtd">
<svg version="1.1" xmlns="http://www.w3.org/2000/svg" xmlns:xlink="http://www.w3.org/1999/xlink" x="0px" y="0px" viewBox="0 0 1000 1000" enable-background="new 0 0 1000 1000" xml:space="preserve">
<metadata> Svg Vector Icons : http://www.onlinewebfonts.com/icon </metadata>
<g><path d="M985.6,271.6c-2.9-21.1-7.3-43.8-13.1-67.8c-5.8-24.1-14.5-44.5-26-61.3c-11.5-16.8-24.3-25.2-38.6-25.2c-1.6-7.1-9.6-6.3-23.8,2.5c-14.2,8.8-20.9,11.7-20,8.8c0.9-2.9-4,0.7-14.8,10.9c-10.8,10.2-16.1,15.3-16.1,15.3L817.2,171c-14.2,13.5-34.9,23.8-62.1,30.9c-27.2,7.1-57,11.5-89.4,13.1s-65,2.7-97.6,3.3c-32.6,0.5-65.4,2.2-98.2,4.9c-32.8,2.7-59.2,7.4-79.3,13.9c-39.7,13.1-76.9,30.5-111.6,52.2c-34.6,21.7-65.7,47-93.2,76c-27.5,29-49.2,62.6-65.1,100.9C104.9,504.6,97,544.7,97,586.6c0,19.3,1.6,38.3,4.9,56.9c0.7,3.6,3.6,11.7,8.8,24.1c5.1,12.4,7.7,19.3,7.7,20.8c0,6.9-5.7,15.7-17,26.2c-11.3,10.6-23.7,20.8-37.2,30.6C50.7,755.1,38.3,767,27,781c-11.3,14-17,27.4-17,40.2c0,2.6,0.3,5,0.8,7.4c0.6,2.4,1.1,4.1,1.6,5.2c0.5,1.1,1.6,2.9,3,5.5c1.5,2.6,2.6,4.6,3.3,6c6.2,10.6,11.1,18.2,14.8,23c3.6,4.7,9.3,9.1,16.9,13.1c7.7,4,17,6,27.9,6c10.6,0,21.5-5.8,32.8-17.5c11.3-11.7,20.9-24.4,28.7-38.3c7.8-13.8,16-26.6,24.6-38.3c8.6-11.7,15.8-17.5,21.6-17.5c8.4,0,25.9,6.7,52.5,20.2c26.6,13.5,42.7,21.2,48.1,23c50.3,17.1,102.4,25.7,156.4,25.7c81.7,0,161.5-19.7,239.5-59.1c79.9-39.7,145-88.6,195.5-146.6c50.5-58,84.1-127.8,100.9-209.5c7.3-35.7,10.9-70.9,10.9-105.5C990,310.3,988.5,292.8,985.6,271.6z M699.6,457c-6.9,6.9-15.1,10.4-24.6,10.4c-66.4,0-123.5,9.5-171.4,28.4c-47.9,19-96.9,51-146.8,96.2c-7.3,6.9-19.5,19-36.6,36.1c-17.1,17.1-30.6,30.1-40.5,38.8c-7.7,6.9-15.9,10.4-24.6,10.4c-9.5,0-17.7-3.5-24.6-10.4c-6.9-6.9-10.4-15.1-10.4-24.6c0-8.8,3.5-16.9,10.4-24.6c44.5-49.2,87.4-89.2,128.8-120c41.4-30.8,88.7-55.2,141.9-73.3c53.2-18,111.2-27.1,173.9-27.1c9.5,0,17.7,3.5,24.6,10.4c6.9,6.9,10.4,15.1,10.4,24.6C710,441.9,706.5,450.1,699.6,457z"/></g>
</svg>