<?xml version="1.0" ?><svg id="Layer_1" style="enable-background:new 0 0 30 30;" version="1.1" viewBox="0 0 30 30" xml:space="preserve" xmlns="http://www.w3.org/2000/svg" xmlns:xlink="http://www.w3.org/1999/xlink"><g><path d="M25.708,9.177c-0.041-0.861-0.445-1.642-1.094-2.199c-0.078-0.917-0.48-1.774-1.135-2.363   c-0.614-0.551-1.392-0.828-2.185-0.789c-0.173-0.684-0.533-1.303-1.042-1.76c-0.617-0.555-1.388-0.835-2.201-0.79   c-0.121,0.007-0.24,0.038-0.36,0.06c-0.698-0.775-1.698-1.198-2.761-1.142c-1.156,0.06-2.185,0.686-2.779,1.658   c-0.068-0.009-0.133-0.025-0.202-0.029c-0.802-0.05-1.583,0.234-2.202,0.79c-0.509,0.458-0.869,1.077-1.042,1.76   c-0.797-0.043-1.571,0.237-2.185,0.79C5.867,5.75,5.465,6.606,5.387,7.523c-0.65,0.558-1.054,1.34-1.094,2.201   c-0.044,0.914,0.332,1.781,0.989,2.415c-0.088,0.251-0.153,0.511-0.165,0.784c-0.068,1.427,0.946,2.65,2.262,2.727   c0.043,0.002,0.086,0.004,0.13,0.004c0.403,0,0.782-0.126,1.123-0.324c0.2,0.826,0.971,1.475,1.928,1.53   c0.04,0.002,0.079,0.003,0.118,0.003c0.702,0,1.329-0.383,1.834-1.095c0.662,1.884,1.028,4.044,1.028,6.323   c0,2.522-0.43,4.911-1.236,6.924h-0.915c-0.221,0-0.4,0.18-0.4,0.4s0.179,0.4,0.4,0.4h7.938c0.221,0,0.4-0.18,0.4-0.4   s-0.18-0.4-0.4-0.4H17.7c-0.881-2.049-1.37-4.617-1.37-7.251c0-2.387,0.395-4.649,1.119-6.593c0.44,0.73,1.109,1.146,1.867,1.146   c0.041,0,0.083-0.001,0.125-0.004c0.957-0.055,1.729-0.704,1.928-1.53c0.341,0.198,0.72,0.324,1.123,0.324   c0.043,0,0.086-0.001,0.13-0.003c1.315-0.077,2.33-1.3,2.262-2.727c-0.013-0.274-0.078-0.533-0.166-0.784   C25.375,10.958,25.751,10.091,25.708,9.177z M16.832,14.503c-0.852,2.114-1.302,4.625-1.302,7.26c0,2.612,0.477,5.158,1.32,7.251   h-3.704c0.771-2.044,1.191-4.419,1.191-6.924c0-2.582-0.437-5.036-1.255-7.122c0.185-0.238,0.371-0.453,0.557-0.633l1.03,1.825   c0.071,0.126,0.163,0.184,0.348,0.203c0.142,0,0.274-0.075,0.346-0.198l1.211-2.078c0.115,0.099,0.221,0.207,0.321,0.319   C16.872,14.437,16.847,14.466,16.832,14.503z M14.275,13.835c0.35-0.214,0.693-0.322,1.02-0.315   c0.208,0.005,0.41,0.058,0.604,0.138l-0.875,1.502L14.275,13.835z M24.095,11.09c-0.01,0.004-0.021,0.003-0.031,0.008   c-0.095,0.047-0.161,0.128-0.195,0.221c-0.1,0.138-0.109,0.327-0.001,0.471c0.03,0.039,0.069,0.064,0.108,0.089   c0.058,0.171,0.1,0.348,0.11,0.535c0.047,0.991-0.63,1.838-1.51,1.89c-0.627,0.037-1.226-0.355-1.51-0.999   c-0.012-0.017-0.017-0.037-0.031-0.054c-0.005-0.006-0.012-0.008-0.017-0.014c-0.107-0.155-0.304-0.223-0.484-0.146   c-0.202,0.088-0.295,0.324-0.207,0.526c0.029,0.067,0.077,0.118,0.11,0.182c0.11,0.157,0.18,0.334,0.188,0.521   c0.029,0.617-0.523,1.153-1.232,1.194c-0.72,0.045-1.152-0.547-1.298-0.804c-0.533-0.942-1.545-1.96-2.783-1.989   c-1.208-0.019-2.327,0.819-3.396,2.512c0,0,0,0,0,0c-0.382,0.578-0.811,0.854-1.313,0.828c-0.708-0.041-1.261-0.577-1.231-1.194   c0.009-0.199,0.083-0.388,0.206-0.551c0.027-0.053,0.067-0.095,0.092-0.151c0.088-0.203-0.005-0.438-0.207-0.526   c-0.181-0.081-0.379-0.01-0.485,0.147c-0.005,0.005-0.011,0.008-0.016,0.014c-0.015,0.019-0.021,0.043-0.035,0.062   c-0.285,0.637-0.883,1.014-1.504,0.99c-0.88-0.051-1.557-0.899-1.51-1.89c0.009-0.187,0.051-0.363,0.109-0.534   c0.039-0.025,0.079-0.051,0.109-0.09c0.108-0.144,0.099-0.334-0.002-0.472c-0.034-0.092-0.1-0.173-0.195-0.22   c-0.01-0.005-0.02-0.004-0.029-0.008c-0.539-0.479-0.847-1.159-0.813-1.874c0.02-0.431,0.171-0.831,0.406-1.178   c0.074,0.099,0.174,0.175,0.303,0.175c0.02,0,0.041-0.001,0.061-0.004C6.08,8.72,6.23,8.516,6.197,8.297   C6.173,8.141,6.171,7.981,6.172,7.822c0.033-0.084,0.04-0.174,0.013-0.261c0.067-0.704,0.374-1.357,0.871-1.804   c0.437-0.393,0.98-0.594,1.539-0.583C8.59,5.344,8.591,5.514,8.608,5.678C8.63,5.884,8.803,6.037,9.006,6.037   c0.014,0,0.028,0,0.042-0.002c0.22-0.023,0.379-0.219,0.357-0.439C9.389,5.45,9.385,5.301,9.392,5.149   c0.036-0.758,0.361-1.466,0.891-1.942c0.458-0.412,1.038-0.619,1.62-0.586c0.034,0.002,0.066,0.011,0.099,0.014   c0.038,0.049,0.085,0.093,0.146,0.121c0.054,0.024,0.11,0.036,0.166,0.036c0.152,0,0.297-0.087,0.364-0.234   c0.416-0.913,1.295-1.513,2.295-1.565c0.916-0.043,1.791,0.373,2.326,1.127c0.128,0.181,0.378,0.223,0.558,0.095   c0.046-0.032,0.082-0.073,0.109-0.118c0.045-0.005,0.088-0.019,0.133-0.022c0.585-0.035,1.161,0.174,1.619,0.585   c0.529,0.477,0.854,1.185,0.891,1.944c0.008,0.152,0.003,0.301-0.012,0.447c-0.021,0.22,0.139,0.416,0.358,0.438   c0.014,0.001,0.027,0.002,0.041,0.002c0.202,0,0.376-0.154,0.397-0.36c0.016-0.165,0.018-0.334,0.012-0.504   c0.556-0.01,1.103,0.19,1.54,0.582c0.496,0.447,0.803,1.1,0.871,1.803c-0.027,0.088-0.021,0.18,0.013,0.264   c0,0.159-0.002,0.318-0.025,0.472c-0.034,0.218,0.115,0.423,0.334,0.457c0.021,0.003,0.042,0.005,0.063,0.005   c0.128,0,0.229-0.075,0.303-0.175c0.236,0.347,0.386,0.748,0.407,1.179C24.943,9.93,24.634,10.61,24.095,11.09z"/><path d="M10.281,29.015H9.5c-0.221,0-0.4,0.18-0.4,0.4s0.179,0.4,0.4,0.4h0.781c0.221,0,0.4-0.18,0.4-0.4   S10.502,29.015,10.281,29.015z"/><path d="M21.156,29.015h-0.781c-0.221,0-0.4,0.18-0.4,0.4s0.179,0.4,0.4,0.4h0.781c0.221,0,0.4-0.18,0.4-0.4   S21.377,29.015,21.156,29.015z"/></g></svg>